<?xml version="1.0" encoding="UTF-8" standalone="no"?>
<!-- Created with Inkscape (http://www.inkscape.org/) -->

<svg
   xmlns:dc="http://purl.org/dc/elements/1.1/"
   xmlns:cc="http://creativecommons.org/ns#"
   xmlns:rdf="http://www.w3.org/1999/02/22-rdf-syntax-ns#"
   xmlns:svg="http://www.w3.org/2000/svg"
   xmlns="http://www.w3.org/2000/svg"
   xmlns:sodipodi="http://sodipodi.sourceforge.net/DTD/sodipodi-0.dtd"
   xmlns:inkscape="http://www.inkscape.org/namespaces/inkscape"
   width="451.55554mm"
   height="254mm"
   viewBox="0 0 1600 900"
   id="svg2"
   version="1.1"
   inkscape:version="0.91 r13725"
   sodipodi:docname="perro.svg">
  <defs
     id="defs4" />
  <sodipodi:namedview
     id="base"
     pagecolor="#ffffff"
     bordercolor="#666666"
     borderopacity="1.0"
     inkscape:pageopacity="0.0"
     inkscape:pageshadow="2"
     inkscape:zoom="0.50062502"
     inkscape:cx="799.99998"
     inkscape:cy="450"
     inkscape:document-units="px"
     inkscape:current-layer="g4378"
     showgrid="false"
     fit-margin-top="0"
     fit-margin-left="0"
     fit-margin-right="0"
     fit-margin-bottom="0"
     inkscape:window-width="1440"
     inkscape:window-height="814"
     inkscape:window-x="0"
     inkscape:window-y="0"
     inkscape:window-maximized="1" />
  <metadata
     id="metadata7">
    <rdf:RDF>
      <cc:Work
         rdf:about="">
        <dc:format>image/svg+xml</dc:format>
        <dc:type
           rdf:resource="http://purl.org/dc/dcmitype/StillImage" />
        <dc:title></dc:title>
      </cc:Work>
    </rdf:RDF>
  </metadata>
  <g
     inkscape:label="Layer 1"
     inkscape:groupmode="layer"
     id="layer1"
     transform="translate(54.285713,-402.36221)">
    <g
       id="g4378"
       transform="translate(0,-80)">
      <path
         sodipodi:nodetypes="cssccsccccccscscc"
         inkscape:connector-curvature="0"
         id="path4384"
         d="m 885.95725,1075.2423 c 0,0 46.65165,139.955 88.3926,176.7852 41.74095,36.8303 8.59373,-14.7321 40.51325,3.6831 31.9196,18.4151 6.1384,39.2856 6.1384,39.2856 l -42.96862,0 c 0,0 -4.9107,-17.1875 -46.65165,-67.5222 -41.74095,-50.3346 -128.90588,-130.1335 -109.26308,-187.8342 -1.90804,5.8653 -5.05636,18.0604 -0.50551,34.8082 -144.19473,-76.54449 -203.28853,-90.05361 -270.81066,-59.3617 31.91955,34.3748 30.69188,110.4907 30.69188,110.4907 -30.53619,30.5362 -74.71791,59.7627 -82.25423,96.9863 -11.88831,58.719 28.12232,41.741 28.23653,41.741 0,0 15.95977,25.7812 3.68302,31.9195 -12.27675,6.1384 -53.02832,6.4783 -60.15607,1.2277 -7.06924,-5.2075 -13.06877,-128.2477 1.22768,-136.272 63.79262,-35.8054 -15.89088,-107.3143 -15.89088,-107.3143 121.92918,-391.60426 643.26279,-192.98241 429.61734,21.3771 z"
         style="fill:#7d4985;fill-opacity:1;fill-rule:evenodd;stroke:#000000;stroke-width:1px;stroke-linecap:butt;stroke-linejoin:miter;stroke-opacity:1" />
      <path
         style="fill:#bc901c;fill-opacity:1;fill-rule:evenodd;stroke:#000000;stroke-width:1px;stroke-linecap:butt;stroke-linejoin:miter;stroke-opacity:1"
         d="m 968.96768,759.79997 c 246.84282,-9.0323 193.72082,103.08121 144.89482,114.75244 -47.3788,11.32526 -19.5593,-59.77192 -144.89482,-114.75244 z"
         id="path4386"
         inkscape:connector-curvature="0"
         sodipodi:nodetypes="csc" />
      <path
         style="fill:#aa66bb;fill-opacity:1;fill-rule:evenodd;stroke:#000000;stroke-width:1px;stroke-linecap:butt;stroke-linejoin:miter;stroke-opacity:1"
         d="m 952.40778,896.00179 c 14.28027,90.64917 -47.0763,156.92501 -126.45053,179.24051 0,0 46.65165,139.955 88.3926,176.7852 41.74095,36.8303 8.59373,-14.7321 40.51328,3.6831 31.91955,18.4151 6.13837,39.2856 6.13837,39.2856 l -42.96862,0 c 0,0 -4.9107,-17.1875 -46.65165,-67.5222 -41.74095,-50.3346 -128.90588,-130.1335 -109.26308,-187.8342 -1.90804,5.8653 -5.05636,18.0604 -0.50551,34.8082 -144.19473,-76.54449 -203.28853,-90.05361 -270.81066,-59.3617 31.91955,34.3748 30.69188,110.4907 30.69188,110.4907 -30.53619,30.5362 -74.71791,59.7627 -82.25423,96.9863 -11.88831,58.719 28.12232,41.741 28.23653,41.741 0,0 15.95977,25.7812 3.68302,31.9195 -12.27675,6.1384 -53.02832,6.4783 -60.15607,1.2277 -7.06924,-5.2075 -13.06877,-128.2477 1.22768,-136.272 63.79262,-35.8054 -0.30526,-75.4657 -17.61872,-107.3143 C 350.38359,972.50568 353.16039,914.84891 381.81566,874.34346 171.95778,907.21118 110.04077,702.54918 221.66878,646.23692 c -110.54897,95.87232 -0.37725,259.8021 191.37914,196.48897 105.18997,-81.9932 345.59154,-52.19859 355.11124,-48.58009 9.5197,3.6185 70.31073,-1.04535 101.002,-41.68338 42.35223,-56.07821 104.20841,-174.74949 181.16224,-147.49497 63.1469,22.36453 75.3508,62.52504 75.3508,62.52504 39.3907,-3.08345 86.1084,-9.32955 136.2726,14.42886 25.5993,12.12418 -139.0441,204.53404 -264.52911,48.09619 0,0 11.22241,97.79559 89.77951,75.3507 -4.8096,41.57859 -189.97532,-34.88401 -109.01795,-126.65331 -40.36444,36.80468 -7.4096,97.05438 -0.75108,88.17635 -19.14924,5.47121 -43.37571,68.06044 -25.02039,129.11051"
         id="path4388"
         inkscape:connector-curvature="0"
         sodipodi:nodetypes="ccssccsccccccscssccczccssccccc" />
      <path
         style="fill:#29261e;fill-opacity:1;fill-rule:evenodd;stroke:#000000;stroke-width:1px;stroke-linecap:butt;stroke-linejoin:miter;stroke-opacity:1"
         d="m 1016.8221,601.18422 c 0,0 -10.7459,-40.82495 21.9899,-41.91471 10.485,-0.34904 31.2872,14.30916 31.6599,13.59477 8.7105,2.11214 19.6488,-1.85858 29.7522,-6.7112 0,0 -11.6756,-18.2377 -61.6994,-23.00653 -29.3674,-2.79963 -31.9469,60.45234 -32.1601,60.36979 l -21.42413,10.47397 c 0,0 -149.67655,-15.60043 -91.77523,60.92094 0,0 1.8036,-80.79723 84.18349,-55.42997 6.91952,-5.42766 18.06642,-12.9124 39.47337,-18.29706 z"
         id="path4390"
         inkscape:connector-curvature="0"
         sodipodi:nodetypes="csccsccscc" />
      <ellipse
         style="fill:#433e31;fill-opacity:1"
         id="ellipse4392"
         cx="1035.3875"
         cy="670.72821"
         rx="12.549019"
         ry="10.457516" />
      <ellipse
         ry="10.027755"
         rx="11.748017"
         cy="656.71332"
         cx="1102.5602"
         id="ellipse4394"
         style="fill:#433e31;fill-opacity:1" />
      <path
         style="fill:#433e31;fill-opacity:1;fill-rule:evenodd;stroke:#000000;stroke-width:1px;stroke-linecap:butt;stroke-linejoin:miter;stroke-opacity:1"
         d="m 1009.1574,650.86447 29.0848,-24.3254 c 0,0 25.383,-1.05763 0,13.22032 -25.3831,14.27796 -29.0848,11.10508 -29.0848,11.10508 z"
         id="path4396"
         inkscape:connector-curvature="0" />
      <path
         inkscape:connector-curvature="0"
         id="path4398"
         d="m 1102.6173,640.92048 -25.0149,-21.32452 c 0,0 -21.8311,-0.92716 0,11.58941 21.8312,12.51657 25.0149,9.73511 25.0149,9.73511 z"
         style="fill:#433e31;fill-opacity:1;fill-rule:evenodd;stroke:#000000;stroke-width:0.86831218px;stroke-linecap:butt;stroke-linejoin:miter;stroke-opacity:1" />
      <path
         style="fill:#281e06;fill-opacity:1;fill-rule:evenodd;stroke:#000000;stroke-width:0.94100904px;stroke-linecap:butt;stroke-linejoin:miter;stroke-opacity:1"
         d="m 1223.7426,669.32745 c 11.9007,-2.03726 40.4981,2.83661 42.5724,21.70147 4.367,39.71802 -13.8253,41.70425 -75.3204,76.21978 8.3511,-21.1394 14.4342,-81.36123 32.748,-97.92125 z"
         id="path4400"
         inkscape:connector-curvature="0"
         sodipodi:nodetypes="cscc" />
    </g>
  </g>
</svg>
