<?xml version="1.0" encoding="UTF-8" standalone="no"?>
<!-- Created with Inkscape (http://www.inkscape.org/) -->

<svg
   xmlns:dc="http://purl.org/dc/elements/1.1/"
   xmlns:cc="http://creativecommons.org/ns#"
   xmlns:rdf="http://www.w3.org/1999/02/22-rdf-syntax-ns#"
   xmlns:svg="http://www.w3.org/2000/svg"
   xmlns="http://www.w3.org/2000/svg"
   xmlns:sodipodi="http://sodipodi.sourceforge.net/DTD/sodipodi-0.dtd"
   xmlns:inkscape="http://www.inkscape.org/namespaces/inkscape"
   width="337.53497mm"
   height="409.7984mm"
   viewBox="0 0 1195.9902 1452.0416"
   id="svg2"
   version="1.1"
   inkscape:version="0.91 r13725"
   sodipodi:docname="wolf.svg">
  <defs
     id="defs4" />
  <sodipodi:namedview
     id="base"
     pagecolor="#ffffff"
     bordercolor="#666666"
     borderopacity="1.0"
     inkscape:pageopacity="0.0"
     inkscape:pageshadow="2"
     inkscape:zoom="0.43332815"
     inkscape:cx="596.82318"
     inkscape:cy="707.88563"
     inkscape:document-units="px"
     inkscape:current-layer="g4256"
     showgrid="false"
     fit-margin-top="0"
     fit-margin-left="0"
     fit-margin-right="0"
     fit-margin-bottom="0"
     inkscape:window-width="1440"
     inkscape:window-height="814"
     inkscape:window-x="0"
     inkscape:window-y="0"
     inkscape:window-maximized="1" />
  <metadata
     id="metadata7">
    <rdf:RDF>
      <cc:Work
         rdf:about="">
        <dc:format>image/svg+xml</dc:format>
        <dc:type
           rdf:resource="http://purl.org/dc/dcmitype/StillImage" />
        <dc:title></dc:title>
      </cc:Work>
    </rdf:RDF>
  </metadata>
  <g
     inkscape:label="Layer 1"
     inkscape:groupmode="layer"
     id="layer1"
     transform="translate(-123.17677,-122.49192)">
    <g
       id="g4256"
       transform="translate(-452.03313,-172.28229)">
      <g
         id="g4276">
        <path
           style="fill:#858f96;fill-opacity:1;fill-rule:evenodd;stroke:#e7b145;stroke-width:1.02167094px;stroke-linecap:butt;stroke-linejoin:miter;stroke-opacity:1"
           d="m 1058.6762,1579.5644 601.8846,-9.6074 c -28.0491,75.6161 -41.3282,73.3919 -42.6335,174.6216 l -511.6019,-0.7931 c 11.0236,-84.3873 -12.1,-73.4617 -47.6492,-164.2211 z"
           id="path4254"
           inkscape:connector-curvature="0"
           sodipodi:nodetypes="ccccc" />
        <path
           style="fill:#bd9a3e;fill-opacity:1;fill-rule:evenodd;stroke:#c8c630;stroke-width:1.10263765px;stroke-linecap:butt;stroke-linejoin:miter;stroke-opacity:1"
           d="m 968.0459,593.51289 c 22.91453,-32.04931 53.6705,-58.85094 73.6794,-69.13278 0,0 16.8409,-53.0018 16.8409,-71.43722 0,-18.4354 53.9013,-56.96213 53.9013,-56.96213 0,0 -7.5335,-50.47357 -24.9736,-66.15465 13.4855,-8.69527 53.7094,18.15076 48.0081,6.10464 -6.1048,-12.89848 3.0851,-27.36683 -3.2565,-35.08 -18.946,-23.04427 73.6794,32.26197 90.5204,53.00181 16.8409,20.73984 122.0972,129.04787 147.3587,182.04968 25.2615,53.00181 -168.4099,172.83198 -189.4611,278.8356 -5.3214,-56.47105 12.5855,-95.63178 23.1563,-115.22132 10.5709,-19.58953 55.9349,-97.71801 -107.3614,-43.7841 -85.2368,28.15224 -118.7261,-39.92839 -128.4125,-62.21953 z"
           id="path4217"
           inkscape:connector-curvature="0"
           sodipodi:nodetypes="ccsccssssczsc" />
        <path
           sodipodi:nodetypes="cscscccscsc"
           inkscape:connector-curvature="0"
           id="path4268"
           d="m 1330.2871,1165.025 c 3.1842,0.3294 9.9798,81.4036 -165.3127,22.8586 -131.6524,-43.9699 -361.36428,85.2043 -367.10137,110.9991 -37.99697,36.712 -19.75935,121.8845 22.5021,213.4462 11.77336,25.5077 -1.69663,148.991 -113.35892,180.0368 -135.83021,-11.985 -83.89513,41.9476 -83.89513,41.9476 64.31906,1.1931 58.4385,19.6322 172.31794,4.3052 103.97151,-134.4817 146.12509,-192.3587 148.10328,-237.8028 1.5719,-36.1106 -81.36067,-54.7019 40.7244,-90.1344 87.8063,-8.5342 261.6765,-17.85 402.5616,-96.3215 85.5399,-47.6448 13.3051,-68.163 -56.5412,-149.3348 z"
           style="fill:#a68f55;fill-opacity:1;fill-rule:evenodd;stroke:#877e58;stroke-width:1px;stroke-linecap:butt;stroke-linejoin:miter;stroke-opacity:1" />
        <path
           style="fill:#bd9a3e;fill-opacity:1;fill-rule:evenodd;stroke:#877e58;stroke-width:1px;stroke-linecap:butt;stroke-linejoin:miter;stroke-opacity:1"
           d="m 1290.2871,1165.025 c 3.1842,0.3294 -0.5026,106.4805 -165.3127,22.8586 -100.0197,-50.7483 -308.05042,73.7799 -367.10137,110.9991 -37.99697,36.712 -19.75935,121.8845 22.5021,213.4462 11.77336,25.5077 -1.69663,148.991 -113.35892,180.0368 -135.83021,-11.985 -79.89513,53.9476 -79.89513,53.9476 l 175.70286,-2.0025 c 79.84075,-126.5761 137.40267,-197.6128 140.71839,-243.4951 2.60524,-36.0508 -81.3607,-54.7019 40.72433,-90.1344 87.80634,-8.5342 261.67654,-17.85 402.56164,-96.3215 85.5399,-47.6448 13.3051,-68.163 -56.5412,-149.3348 z"
           id="path4250"
           inkscape:connector-curvature="0"
           sodipodi:nodetypes="cscscccscsc" />
        <path
           style="fill:#d2dbdc;fill-opacity:1;fill-rule:evenodd;stroke:#84b1b2;stroke-width:1.23415887px;stroke-linecap:butt;stroke-linejoin:miter;stroke-opacity:1"
           d="m 953.79955,453.85131 c 9.749,80.07079 11.01654,532.74231 25.53174,576.13129 l -106.23643,7.0382 -223.55403,-441.07124 c -22.523,-34.49661 219.17456,-93.16104 304.25872,-142.09825 z"
           id="path4246"
           inkscape:connector-curvature="0"
           sodipodi:nodetypes="ccccc" />
        <path
           sodipodi:nodetypes="cccc"
           inkscape:connector-curvature="0"
           id="path4272"
           d="M 1012.0781,814.76342 C 934.99365,958.078 969.86123,794.821 964.65424,756.87729 c 0,0 -16.43852,-23.77814 -12.23338,-36.56456 42.74115,-27.15501 46.01594,83.20373 59.65724,94.45069 z"
           style="fill:#977e3c;fill-opacity:1;fill-rule:evenodd;stroke:#72712f;stroke-width:1px;stroke-linecap:butt;stroke-linejoin:miter;stroke-opacity:1" />
        <path
           sodipodi:nodetypes="ccszcc"
           inkscape:connector-curvature="0"
           id="path4270"
           d="m 1014.9293,801.48569 c -48.15661,58.69079 -34.6126,90.29352 -34.6126,90.29352 42.578,58.95409 193.4327,295.35779 293.4539,255.83169 160.5025,-63.4269 261.4786,-446.24167 144.4696,-477.05081 -117.0089,-30.80914 -184.7314,265.67315 -189.6163,326.5615 -182.3494,-164.06148 -100.0126,-70.76981 -213.6946,-195.6359 z"
           style="fill:#627272;fill-opacity:1;fill-rule:evenodd;stroke:#ababab;stroke-width:1px;stroke-linecap:butt;stroke-linejoin:miter;stroke-opacity:1" />
        <path
           style="fill:#718a8a;fill-opacity:1;fill-rule:evenodd;stroke:#ababab;stroke-width:1px;stroke-linecap:butt;stroke-linejoin:miter;stroke-opacity:1"
           d="m 1369.4516,524.58558 c 332.0814,420.71134 289.6612,946.88502 -312.3053,856.87672 9.8649,-58.7659 -49.3326,-180.1 -138.67945,-171.9846 133.96355,-68.2749 158.91935,-85.9288 189.23455,-121.8359 98.8499,-117.08311 -19.2222,-225.02532 36.6485,-325.2833 71.5139,-128.3291 225.1017,-237.77292 225.1017,-237.77292 z"
           id="path4238"
           inkscape:connector-curvature="0"
           sodipodi:nodetypes="cccssc" />
        <path
           sodipodi:nodetypes="cccsc"
           style="fill:#d2dbdc;fill-opacity:1;fill-rule:evenodd;stroke:#3b6263;stroke-width:1.23415887px;stroke-linecap:butt;stroke-linejoin:miter;stroke-opacity:1"
           d="m 863.10064,521.19795 c 0,7.29774 -154.06219,74.87215 -212.7986,65.81604 -43.5713,62.37312 194.89965,456.12041 194.89965,456.12041 0,0 103.41617,56.6324 129.27018,99.4895 25.85403,42.8569 -111.37123,-621.42595 -111.37123,-621.42595 z"
           id="path4244"
           inkscape:connector-curvature="0" />
        <path
           style="fill:none;fill-rule:evenodd;stroke:#85a8a9;stroke-width:1px;stroke-linecap:butt;stroke-linejoin:miter;stroke-opacity:1"
           d="m 793.65816,696.18886 c 0,0 113.09491,100.37173 108.85385,214.88032"
           id="path4248"
           inkscape:connector-curvature="0"
           sodipodi:nodetypes="cc" />
        <path
           style="fill:#bd9a3e;fill-opacity:1;fill-rule:evenodd;stroke:#72712f;stroke-width:1px;stroke-linecap:butt;stroke-linejoin:miter;stroke-opacity:1"
           d="m 976.07813,814.76342 c -15.71402,19.73712 -29.17459,41.9423 -28.05451,80.11677 0,0 -60.32822,-43.79409 -70.07261,-61.56384 -25.50853,-46.51704 -69.34562,-101.58613 -14.17779,-85.51402 20.37016,5.93447 38.21909,3.92635 64.88102,9.07496 0,0 -16.43852,-23.77814 -12.23338,-36.56456 42.74115,-27.15501 46.01592,83.20373 59.65727,94.45069 z"
           id="path4242"
           inkscape:connector-curvature="0"
           sodipodi:nodetypes="ccssccc" />
        <path
           style="fill:#718a8a;fill-opacity:1;fill-rule:evenodd;stroke:#ababab;stroke-width:1px;stroke-linecap:butt;stroke-linejoin:miter;stroke-opacity:1"
           d="m 974.92925,801.48569 c -48.15656,58.69079 -34.61255,90.29352 -34.61255,90.29352 42.57795,58.95409 193.4327,295.35779 293.4539,255.83169 160.5025,-63.4269 261.4786,-446.24167 144.4696,-477.05081 -117.0089,-30.80914 -184.7314,265.67315 -189.6163,326.5615 -182.3494,-164.06148 -100.0126,-70.76981 -213.69465,-195.6359 z"
           id="path4240"
           inkscape:connector-curvature="0"
           sodipodi:nodetypes="ccszcc" />
        <path
           style="fill:#dcd7d2;fill-opacity:1;fill-rule:evenodd;stroke:#34acb0;stroke-width:1px;stroke-linecap:butt;stroke-linejoin:miter;stroke-opacity:1"
           d="m 1423.7825,1331.0159 c -152.3248,82.2637 -437.51777,6.1668 -460.87407,78.113 -40.8002,118.4024 -60.42599,209.6826 79.68827,215.3217 140.1143,5.6391 508.0265,-7.9643 643.1176,-1.1095 l 84.9698,-933.71439 c -142.5463,-181.67026 -342.9203,-154.6381 -327.3115,55.6755 17.4892,235.64853 -19.5901,585.71369 -19.5901,585.71369 z"
           id="path4252"
           inkscape:connector-curvature="0"
           sodipodi:nodetypes="cczccsc" />
        <ellipse
           transform="matrix(0.97450623,-0.22436043,0.22436043,0.97450623,0,0)"
           ry="11.55268"
           rx="9.2421446"
           cy="745.82086"
           cx="946.66571"
           id="path4274"
           style="fill:#977e3c;fill-opacity:1;stroke:#938976;stroke-opacity:1" />
      </g>
    </g>
  </g>
</svg>
